/* XPM */
static char * open_xpm[] = {
"16 16 16 1",
" 	c #040204",
".	c #848204",
"+	c #C4C2C4",
"@	c #FCFE04",
"#	c #FCFEFC",
"$	c #95C402",
"%	c #14120B",
"&	c #000000",
"*	c #884F82",
"=	c #162F00",
"-	c #15E100",
";	c #007700",
">	c #11E000",
",	c #01E000",
"'	c #005C00",
")	c #000000",
"++++++++++++++++",
"++++++++++++++++",
"+++++++++   ++++",
"++++++++ +++ + +",
"+++++++++++++  +",
"+   ++++++++   +",
" #@#       +++++",
" @#@#@#@#@ +++++",
" #@#@#@#@# +++++",
" @#@#          +",
" #@# ......... +",
" @# ......... ++",
" # ......... +++",
"  ......... ++++",
"           +++++",
"++++++++++++++++"};
