/* XPM */
static char * reopen_xpm[] = {
"16 16 9 1",
" 	c #9C9C9C",
".	c #868686",
"+	c #FFFFFF",
"@	c #040404",
"#	c #FFFF99",
"$	c #339900",
"%	c #CCCCCC",
"&	c #006666",
"*	c #009966",
" ..........     ",
" .++++++++.@    ",
" .+++++#+#.+@   ",
" .+++++$#+@@@@  ",
" .+++++$$#+%%@  ",
" .++#$$$$$#+%@  ",
" .+#&*+$$#+#%@  ",
" .++&+#$#+#+%@  ",
" .+#&#+#+#&#%@  ",
" .++#+#$#+&+%@  ",
" .+#+#$$+*&#%@  ",
" .++#$$$$$#+%@  ",
" .+#+#$$+#+#%@  ",
" .++#+#$#+#+%@  ",
" .%%%%%%%%%%%@  ",
" @@@@@@@@@@@@@  "};
